<?xml version="1.0" standalone="no"?>
<!DOCTYPE svg PUBLIC "-//W3C//DTD SVG 20010904//EN"
 "http://www.w3.org/TR/2001/REC-SVG-20010904/DTD/svg10.dtd">
<svg version="1.0" xmlns="http://www.w3.org/2000/svg"
 width="512.000000pt" height="512.000000pt" viewBox="0 0 512.000000 512.000000"
 preserveAspectRatio="xMidYMid meet">

<g transform="translate(0.000000,512.000000) scale(0.100000,-0.100000)"
fill="#000000" stroke="none">
<path d="M930 4464 c-229 -49 -431 -246 -484 -474 -14 -57 -16 -241 -16 -1430
0 -1516 -4 -1425 68 -1570 54 -110 168 -223 282 -279 148 -72 127 -71 1035
-71 908 0 888 -1 1035 71 164 82 296 253 335 435 19 90 21 566 3 628 -17 57
-82 119 -141 135 -95 27 -195 -13 -244 -97 l-28 -47 -5 -281 -5 -281 -27 -39
c-15 -21 -44 -50 -65 -64 l-37 -25 -800 -3 c-551 -2 -813 0 -838 8 -49 14 -94
53 -121 104 l-22 41 0 1335 0 1335 22 40 c27 50 58 80 105 100 33 13 138 15
836 15 l799 0 44 -23 c24 -13 58 -43 74 -66 l30 -43 5 -281 5 -282 28 -47 c71
-121 234 -142 332 -44 61 61 65 87 65 382 0 301 -8 354 -72 483 -82 167 -251
298 -433 336 -101 21 -1666 21 -1765 -1z"/>
<path d="M3755 3397 c-41 -19 -95 -74 -111 -114 -18 -43 -18 -125 1 -169 9
-21 79 -102 167 -190 l152 -154 -1260 0 c-1204 0 -1261 -1 -1299 -19 -165 -76
-165 -306 0 -382 38 -18 95 -19 1299 -19 l1259 0 -155 -158 c-171 -173 -183
-194 -176 -292 8 -105 83 -180 188 -188 107 -8 104 -10 473 357 185 184 349
353 364 374 32 46 42 134 23 193 -10 31 -86 113 -349 377 -184 185 -353 350
-374 364 -32 22 -53 28 -106 30 -41 2 -78 -2 -96 -10z"/>
</g>
</svg>
